<svg width="18" height="18" viewBox="0 0 18 18" fill="none" xmlns="http://www.w3.org/2000/svg">
<path d="M16 1.8H15V0.9C15 0.405 14.55 0 14 0C13.45 0 13 0.405 13 0.9V1.8H5V0.9C5 0.405 4.55 0 4 0C3.45 0 3 0.405 3 0.9V1.8H2C0.89 1.8 0.00999999 2.61 0.00999999 3.6L0 16.2C0 16.6774 0.210714 17.1352 0.585786 17.4728C0.960859 17.8104 1.46957 18 2 18H16C17.1 18 18 17.19 18 16.2V3.6C18 2.61 17.1 1.8 16 1.8ZM16 15.3C16 15.795 15.55 16.2 15 16.2H3C2.45 16.2 2 15.795 2 15.3V6.3H16V15.3ZM4 8.1H6V9.9H4V8.1ZM8 8.1H10V9.9H8V8.1ZM12 8.1H14V9.9H12V8.1Z" fill="#FD6036"/>
</svg>
