<svg width="18" height="22" viewBox="0 0 18 22" fill="none" xmlns="http://www.w3.org/2000/svg">
<path d="M9 15.2857C10.2726 15.2845 11.4928 14.8326 12.3927 14.0292C13.2925 13.2257 13.7987 12.1363 13.8 11V5.28571C13.8 4.14907 13.2943 3.05898 12.3941 2.25526C11.4939 1.45153 10.273 1 9 1C7.72696 1 6.50606 1.45153 5.60589 2.25526C4.70571 3.05898 4.2 4.14907 4.2 5.28571V11C4.20132 12.1363 4.70746 13.2257 5.60735 14.0292C6.50724 14.8326 7.72737 15.2845 9 15.2857ZM5.8 5.28571C5.8 4.52795 6.13714 3.80123 6.73726 3.26541C7.33737 2.72959 8.15131 2.42857 9 2.42857C9.84869 2.42857 10.6626 2.72959 11.2627 3.26541C11.8629 3.80123 12.2 4.52795 12.2 5.28571V11C12.2 11.7578 11.8629 12.4845 11.2627 13.0203C10.6626 13.5561 9.84869 13.8571 9 13.8571C8.15131 13.8571 7.33737 13.5561 6.73726 13.0203C6.13714 12.4845 5.8 11.7578 5.8 11V5.28571ZM9.8 18.1071V20.2857C9.8 20.4752 9.71572 20.6568 9.56569 20.7908C9.41566 20.9247 9.21217 21 9 21C8.78783 21 8.58434 20.9247 8.43431 20.7908C8.28429 20.6568 8.2 20.4752 8.2 20.2857V18.1071C6.22764 17.9279 4.39977 17.1021 3.06984 15.7893C1.73992 14.4766 1.00244 12.7701 1 11C1 10.8106 1.08429 10.6289 1.23431 10.4949C1.38434 10.361 1.58783 10.2857 1.8 10.2857C2.01217 10.2857 2.21566 10.361 2.36569 10.4949C2.51571 10.6289 2.6 10.8106 2.6 11C2.6 12.5155 3.27428 13.969 4.47452 15.0406C5.67475 16.1122 7.30261 16.7143 9 16.7143C10.6974 16.7143 12.3253 16.1122 13.5255 15.0406C14.7257 13.969 15.4 12.5155 15.4 11C15.4 10.8106 15.4843 10.6289 15.6343 10.4949C15.7843 10.361 15.9878 10.2857 16.2 10.2857C16.4122 10.2857 16.6157 10.361 16.7657 10.4949C16.9157 10.6289 17 10.8106 17 11C16.9976 12.7701 16.2601 14.4766 14.9302 15.7893C13.6002 17.1021 11.7724 17.9279 9.8 18.1071Z" fill="#FD6036" stroke="#FD6036" stroke-width="0.5"/>
</svg>
